<?xml version="1.0" encoding="utf-8" standalone="no"?>
<!DOCTYPE svg PUBLIC "-//W3C//DTD SVG 1.1//EN"
  "http://www.w3.org/Graphics/SVG/1.1/DTD/svg11.dtd">
<!-- Created with matplotlib (http://matplotlib.org/) -->
<svg height="396pt" version="1.1" viewBox="0 0 576 396" width="576pt" xmlns="http://www.w3.org/2000/svg" xmlns:xlink="http://www.w3.org/1999/xlink">
 <defs>
  <style type="text/css">
*{stroke-linecap:butt;stroke-linejoin:round;stroke-miterlimit:100000;}
  </style>
 </defs>
 <g id="figure_1">
  <g id="patch_1">
   <path d="M 0 396 
L 576 396 
L 576 0 
L 0 0 
z
" style="fill:#ffffff;"/>
  </g>
  <g id="axes_1">
   <g id="patch_2">
    <path d="M 72 346.5 
L 518.4 346.5 
L 518.4 39.6 
L 72 39.6 
z
" style="fill:#eaeaf2;"/>
   </g>
   <g id="matplotlib.axis_1">
    <g id="xtick_1">
     <g id="line2d_1">
      <path clip-path="url(#pa3304034b9)" d="M 72 346.5 
L 72 39.6 
" style="fill:none;stroke:#ffffff;stroke-linecap:round;"/>
     </g>
     <g id="line2d_2">
      <defs>
       <path d="M 0 0 
L 0 0 
" id="m5f91c64932" style="stroke:#262626;"/>
      </defs>
      <g>
       <use style="fill:#262626;stroke:#262626;" x="72.0" xlink:href="#m5f91c64932" y="346.5"/>
      </g>
     </g>
     <g id="line2d_3">
      <g>
       <use style="fill:#262626;stroke:#262626;" x="72.0" xlink:href="#m5f91c64932" y="39.6"/>
      </g>
     </g>
     <g id="text_1">
      <!-- −1000 -->
      <defs>
       <path d="M 4.15625 35.296875 
Q 4.15625 48 6.765625 55.734375 
Q 9.375 63.484375 14.515625 67.671875 
Q 19.671875 71.875 27.484375 71.875 
Q 33.25 71.875 37.59375 69.546875 
Q 41.9375 67.234375 44.765625 62.859375 
Q 47.609375 58.5 49.21875 52.21875 
Q 50.828125 45.953125 50.828125 35.296875 
Q 50.828125 22.703125 48.234375 14.96875 
Q 45.65625 7.234375 40.5 3 
Q 35.359375 -1.21875 27.484375 -1.21875 
Q 17.140625 -1.21875 11.234375 6.203125 
Q 4.15625 15.140625 4.15625 35.296875 
M 13.1875 35.296875 
Q 13.1875 17.671875 17.3125 11.828125 
Q 21.4375 6 27.484375 6 
Q 33.546875 6 37.671875 11.859375 
Q 41.796875 17.71875 41.796875 35.296875 
Q 41.796875 52.984375 37.671875 58.78125 
Q 33.546875 64.59375 27.390625 64.59375 
Q 21.34375 64.59375 17.71875 59.46875 
Q 13.1875 52.9375 13.1875 35.296875 
" id="ArialMT-30"/>
       <path d="M 52.828125 31.203125 
L 5.5625 31.203125 
L 5.5625 39.40625 
L 52.828125 39.40625 
z
" id="ArialMT-2212"/>
       <path d="M 37.25 0 
L 28.46875 0 
L 28.46875 56 
Q 25.296875 52.984375 20.140625 49.953125 
Q 14.984375 46.921875 10.890625 45.40625 
L 10.890625 53.90625 
Q 18.265625 57.375 23.78125 62.296875 
Q 29.296875 67.234375 31.59375 71.875 
L 37.25 71.875 
z
" id="ArialMT-31"/>
      </defs>
      <g style="fill:#262626;" transform="translate(43.915625 367.815625)scale(0.2 -0.2)">
       <use xlink:href="#ArialMT-2212"/>
       <use x="58.3984375" xlink:href="#ArialMT-31"/>
       <use x="114.013671875" xlink:href="#ArialMT-30"/>
       <use x="169.62890625" xlink:href="#ArialMT-30"/>
       <use x="225.244140625" xlink:href="#ArialMT-30"/>
      </g>
     </g>
    </g>
    <g id="xtick_2">
     <g id="line2d_4">
      <path clip-path="url(#pa3304034b9)" d="M 161.28 346.5 
L 161.28 39.6 
" style="fill:none;stroke:#ffffff;stroke-linecap:round;"/>
     </g>
     <g id="line2d_5">
      <g>
       <use style="fill:#262626;stroke:#262626;" x="161.28" xlink:href="#m5f91c64932" y="346.5"/>
      </g>
     </g>
     <g id="line2d_6">
      <g>
       <use style="fill:#262626;stroke:#262626;" x="161.28" xlink:href="#m5f91c64932" y="39.6"/>
      </g>
     </g>
     <g id="text_2">
      <!-- −500 -->
      <defs>
       <path d="M 4.15625 18.75 
L 13.375 19.53125 
Q 14.40625 12.796875 18.140625 9.390625 
Q 21.875 6 27.15625 6 
Q 33.5 6 37.890625 10.78125 
Q 42.28125 15.578125 42.28125 23.484375 
Q 42.28125 31 38.0625 35.34375 
Q 33.84375 39.703125 27 39.703125 
Q 22.75 39.703125 19.328125 37.765625 
Q 15.921875 35.84375 13.96875 32.765625 
L 5.71875 33.84375 
L 12.640625 70.609375 
L 48.25 70.609375 
L 48.25 62.203125 
L 19.671875 62.203125 
L 15.828125 42.96875 
Q 22.265625 47.46875 29.34375 47.46875 
Q 38.71875 47.46875 45.15625 40.96875 
Q 51.609375 34.46875 51.609375 24.265625 
Q 51.609375 14.546875 45.953125 7.46875 
Q 39.0625 -1.21875 27.15625 -1.21875 
Q 17.390625 -1.21875 11.203125 4.25 
Q 5.03125 9.71875 4.15625 18.75 
" id="ArialMT-35"/>
      </defs>
      <g style="fill:#262626;" transform="translate(138.7565625 367.815625)scale(0.2 -0.2)">
       <use xlink:href="#ArialMT-2212"/>
       <use x="58.3984375" xlink:href="#ArialMT-35"/>
       <use x="114.013671875" xlink:href="#ArialMT-30"/>
       <use x="169.62890625" xlink:href="#ArialMT-30"/>
      </g>
     </g>
    </g>
    <g id="xtick_3">
     <g id="line2d_7">
      <path clip-path="url(#pa3304034b9)" d="M 250.56 346.5 
L 250.56 39.6 
" style="fill:none;stroke:#ffffff;stroke-linecap:round;"/>
     </g>
     <g id="line2d_8">
      <g>
       <use style="fill:#262626;stroke:#262626;" x="250.56" xlink:href="#m5f91c64932" y="346.5"/>
      </g>
     </g>
     <g id="line2d_9">
      <g>
       <use style="fill:#262626;stroke:#262626;" x="250.56" xlink:href="#m5f91c64932" y="39.6"/>
      </g>
     </g>
     <g id="text_3">
      <!-- 0 -->
      <g style="fill:#262626;" transform="translate(244.9990625 367.815625)scale(0.2 -0.2)">
       <use xlink:href="#ArialMT-30"/>
      </g>
     </g>
    </g>
    <g id="xtick_4">
     <g id="line2d_10">
      <path clip-path="url(#pa3304034b9)" d="M 339.84 346.5 
L 339.84 39.6 
" style="fill:none;stroke:#ffffff;stroke-linecap:round;"/>
     </g>
     <g id="line2d_11">
      <g>
       <use style="fill:#262626;stroke:#262626;" x="339.84" xlink:href="#m5f91c64932" y="346.5"/>
      </g>
     </g>
     <g id="line2d_12">
      <g>
       <use style="fill:#262626;stroke:#262626;" x="339.84" xlink:href="#m5f91c64932" y="39.6"/>
      </g>
     </g>
     <g id="text_4">
      <!-- 500 -->
      <g style="fill:#262626;" transform="translate(323.1571875 367.815625)scale(0.2 -0.2)">
       <use xlink:href="#ArialMT-35"/>
       <use x="55.615234375" xlink:href="#ArialMT-30"/>
       <use x="111.23046875" xlink:href="#ArialMT-30"/>
      </g>
     </g>
    </g>
    <g id="xtick_5">
     <g id="line2d_13">
      <path clip-path="url(#pa3304034b9)" d="M 429.12 346.5 
L 429.12 39.6 
" style="fill:none;stroke:#ffffff;stroke-linecap:round;"/>
     </g>
     <g id="line2d_14">
      <g>
       <use style="fill:#262626;stroke:#262626;" x="429.12" xlink:href="#m5f91c64932" y="346.5"/>
      </g>
     </g>
     <g id="line2d_15">
      <g>
       <use style="fill:#262626;stroke:#262626;" x="429.12" xlink:href="#m5f91c64932" y="39.6"/>
      </g>
     </g>
     <g id="text_5">
      <!-- 1000 -->
      <g style="fill:#262626;" transform="translate(406.87625 367.815625)scale(0.2 -0.2)">
       <use xlink:href="#ArialMT-31"/>
       <use x="55.615234375" xlink:href="#ArialMT-30"/>
       <use x="111.23046875" xlink:href="#ArialMT-30"/>
       <use x="166.845703125" xlink:href="#ArialMT-30"/>
      </g>
     </g>
    </g>
    <g id="xtick_6">
     <g id="line2d_16">
      <path clip-path="url(#pa3304034b9)" d="M 518.4 346.5 
L 518.4 39.6 
" style="fill:none;stroke:#ffffff;stroke-linecap:round;"/>
     </g>
     <g id="line2d_17">
      <g>
       <use style="fill:#262626;stroke:#262626;" x="518.4" xlink:href="#m5f91c64932" y="346.5"/>
      </g>
     </g>
     <g id="line2d_18">
      <g>
       <use style="fill:#262626;stroke:#262626;" x="518.4" xlink:href="#m5f91c64932" y="39.6"/>
      </g>
     </g>
     <g id="text_6">
      <!-- 1500 -->
      <g style="fill:#262626;" transform="translate(496.15625 367.815625)scale(0.2 -0.2)">
       <use xlink:href="#ArialMT-31"/>
       <use x="55.615234375" xlink:href="#ArialMT-35"/>
       <use x="111.23046875" xlink:href="#ArialMT-30"/>
       <use x="166.845703125" xlink:href="#ArialMT-30"/>
      </g>
     </g>
    </g>
    <g id="text_7">
     <!-- T(This work) - T(SSPP) -->
     <defs>
      <path d="M 23.390625 -21.046875 
Q 16.109375 -11.859375 11.078125 0.4375 
Q 6.0625 12.75 6.0625 25.921875 
Q 6.0625 37.546875 9.8125 48.1875 
Q 14.203125 60.546875 23.390625 72.796875 
L 29.6875 72.796875 
Q 23.78125 62.640625 21.875 58.296875 
Q 18.890625 51.5625 17.1875 44.234375 
Q 15.09375 35.109375 15.09375 25.875 
Q 15.09375 2.390625 29.6875 -21.046875 
z
" id="ArialMT-28"/>
      <path d="M 25.921875 0 
L 25.921875 63.140625 
L 2.34375 63.140625 
L 2.34375 71.578125 
L 59.078125 71.578125 
L 59.078125 63.140625 
L 35.40625 63.140625 
L 35.40625 0 
z
" id="ArialMT-54"/>
      <path d="M 12.359375 -21.046875 
L 6.0625 -21.046875 
Q 20.65625 2.390625 20.65625 25.875 
Q 20.65625 35.0625 18.5625 44.09375 
Q 16.890625 51.421875 13.921875 58.15625 
Q 12.015625 62.546875 6.0625 72.796875 
L 12.359375 72.796875 
Q 21.53125 60.546875 25.921875 48.1875 
Q 29.6875 37.546875 29.6875 25.921875 
Q 29.6875 12.75 24.625 0.4375 
Q 19.578125 -11.859375 12.359375 -21.046875 
" id="ArialMT-29"/>
      <path d="M 3.328125 25.921875 
Q 3.328125 40.328125 11.328125 47.265625 
Q 18.015625 53.03125 27.640625 53.03125 
Q 38.328125 53.03125 45.109375 46.015625 
Q 51.90625 39.015625 51.90625 26.65625 
Q 51.90625 16.65625 48.90625 10.90625 
Q 45.90625 5.171875 40.15625 2 
Q 34.421875 -1.171875 27.640625 -1.171875 
Q 16.75 -1.171875 10.03125 5.8125 
Q 3.328125 12.796875 3.328125 25.921875 
M 12.359375 25.921875 
Q 12.359375 15.96875 16.703125 11.015625 
Q 21.046875 6.0625 27.640625 6.0625 
Q 34.1875 6.0625 38.53125 11.03125 
Q 42.875 16.015625 42.875 26.21875 
Q 42.875 35.84375 38.5 40.796875 
Q 34.125 45.75 27.640625 45.75 
Q 21.046875 45.75 16.703125 40.8125 
Q 12.359375 35.890625 12.359375 25.921875 
" id="ArialMT-6f"/>
      <path d="M 6.640625 61.46875 
L 6.640625 71.578125 
L 15.4375 71.578125 
L 15.4375 61.46875 
z
M 6.640625 0 
L 6.640625 51.859375 
L 15.4375 51.859375 
L 15.4375 0 
z
" id="ArialMT-69"/>
      <path d="M 3.078125 15.484375 
L 11.765625 16.84375 
Q 12.5 11.625 15.84375 8.84375 
Q 19.1875 6.0625 25.203125 6.0625 
Q 31.25 6.0625 34.171875 8.515625 
Q 37.109375 10.984375 37.109375 14.3125 
Q 37.109375 17.28125 34.515625 19 
Q 32.71875 20.171875 25.53125 21.96875 
Q 15.875 24.421875 12.140625 26.203125 
Q 8.40625 27.984375 6.46875 31.125 
Q 4.546875 34.28125 4.546875 38.09375 
Q 4.546875 41.546875 6.125 44.5 
Q 7.71875 47.46875 10.453125 49.421875 
Q 12.5 50.921875 16.03125 51.96875 
Q 19.578125 53.03125 23.640625 53.03125 
Q 29.734375 53.03125 34.34375 51.265625 
Q 38.96875 49.515625 41.15625 46.5 
Q 43.359375 43.5 44.1875 38.484375 
L 35.59375 37.3125 
Q 35.015625 41.3125 32.203125 43.546875 
Q 29.390625 45.796875 24.265625 45.796875 
Q 18.21875 45.796875 15.625 43.796875 
Q 13.03125 41.796875 13.03125 39.109375 
Q 13.03125 37.40625 14.109375 36.03125 
Q 15.1875 34.625 17.484375 33.6875 
Q 18.796875 33.203125 25.25 31.453125 
Q 34.578125 28.953125 38.25 27.359375 
Q 41.9375 25.78125 44.03125 22.75 
Q 46.140625 19.734375 46.140625 15.234375 
Q 46.140625 10.84375 43.578125 6.953125 
Q 41.015625 3.078125 36.171875 0.953125 
Q 31.34375 -1.171875 25.25 -1.171875 
Q 15.140625 -1.171875 9.84375 3.03125 
Q 4.546875 7.234375 3.078125 15.484375 
" id="ArialMT-73"/>
      <path d="M 6.59375 0 
L 6.59375 71.578125 
L 15.375 71.578125 
L 15.375 45.90625 
Q 21.53125 53.03125 30.90625 53.03125 
Q 36.671875 53.03125 40.921875 50.75 
Q 45.171875 48.484375 47 44.484375 
Q 48.828125 40.484375 48.828125 32.859375 
L 48.828125 0 
L 40.046875 0 
L 40.046875 32.859375 
Q 40.046875 39.453125 37.1875 42.453125 
Q 34.328125 45.453125 29.109375 45.453125 
Q 25.203125 45.453125 21.75 43.421875 
Q 18.3125 41.40625 16.84375 37.9375 
Q 15.375 34.46875 15.375 28.375 
L 15.375 0 
z
" id="ArialMT-68"/>
      <path id="ArialMT-20"/>
      <path d="M 3.171875 21.484375 
L 3.171875 30.328125 
L 30.171875 30.328125 
L 30.171875 21.484375 
z
" id="ArialMT-2d"/>
      <path d="M 6.640625 0 
L 6.640625 71.578125 
L 15.4375 71.578125 
L 15.4375 30.765625 
L 36.234375 51.859375 
L 47.609375 51.859375 
L 27.78125 32.625 
L 49.609375 0 
L 38.765625 0 
L 21.625 26.515625 
L 15.4375 20.5625 
L 15.4375 0 
z
" id="ArialMT-6b"/>
      <path d="M 6.5 0 
L 6.5 51.859375 
L 14.40625 51.859375 
L 14.40625 44 
Q 17.4375 49.515625 20 51.265625 
Q 22.5625 53.03125 25.640625 53.03125 
Q 30.078125 53.03125 34.671875 50.203125 
L 31.640625 42.046875 
Q 28.421875 43.953125 25.203125 43.953125 
Q 22.3125 43.953125 20.015625 42.21875 
Q 17.71875 40.484375 16.75 37.40625 
Q 15.28125 32.71875 15.28125 27.15625 
L 15.28125 0 
z
" id="ArialMT-72"/>
      <path d="M 7.71875 0 
L 7.71875 71.578125 
L 34.71875 71.578125 
Q 41.84375 71.578125 45.609375 70.90625 
Q 50.875 70.015625 54.4375 67.546875 
Q 58.015625 65.09375 60.1875 60.640625 
Q 62.359375 56.203125 62.359375 50.875 
Q 62.359375 41.75 56.546875 35.421875 
Q 50.734375 29.109375 35.546875 29.109375 
L 17.1875 29.109375 
L 17.1875 0 
z
M 17.1875 37.546875 
L 35.6875 37.546875 
Q 44.875 37.546875 48.734375 40.96875 
Q 52.59375 44.390625 52.59375 50.59375 
Q 52.59375 55.078125 50.3125 58.265625 
Q 48.046875 61.46875 44.34375 62.5 
Q 41.9375 63.140625 35.5 63.140625 
L 17.1875 63.140625 
z
" id="ArialMT-50"/>
      <path d="M 4.5 23 
L 13.421875 23.78125 
Q 14.0625 18.40625 16.375 14.96875 
Q 18.703125 11.53125 23.578125 9.40625 
Q 28.46875 7.28125 34.578125 7.28125 
Q 39.984375 7.28125 44.140625 8.890625 
Q 48.296875 10.5 50.3125 13.296875 
Q 52.34375 16.109375 52.34375 19.4375 
Q 52.34375 22.796875 50.390625 25.3125 
Q 48.4375 27.828125 43.953125 29.546875 
Q 41.0625 30.671875 31.203125 33.03125 
Q 21.34375 35.40625 17.390625 37.5 
Q 12.25 40.1875 9.734375 44.15625 
Q 7.234375 48.140625 7.234375 53.078125 
Q 7.234375 58.5 10.296875 63.203125 
Q 13.375 67.921875 19.28125 70.359375 
Q 25.203125 72.796875 32.421875 72.796875 
Q 40.375 72.796875 46.453125 70.234375 
Q 52.546875 67.671875 55.8125 62.6875 
Q 59.078125 57.71875 59.328125 51.421875 
L 50.25 50.734375 
Q 49.515625 57.515625 45.28125 60.984375 
Q 41.0625 64.453125 32.8125 64.453125 
Q 24.21875 64.453125 20.28125 61.296875 
Q 16.359375 58.15625 16.359375 53.71875 
Q 16.359375 49.859375 19.140625 47.359375 
Q 21.875 44.875 33.421875 42.265625 
Q 44.96875 39.65625 49.265625 37.703125 
Q 55.515625 34.8125 58.484375 30.390625 
Q 61.46875 25.984375 61.46875 20.21875 
Q 61.46875 14.5 58.203125 9.4375 
Q 54.9375 4.390625 48.796875 1.578125 
Q 42.671875 -1.21875 35.015625 -1.21875 
Q 25.296875 -1.21875 18.71875 1.609375 
Q 12.15625 4.4375 8.421875 10.125 
Q 4.6875 15.828125 4.5 23 
" id="ArialMT-53"/>
      <path d="M 16.15625 0 
L 0.296875 51.859375 
L 9.375 51.859375 
L 17.625 21.921875 
L 20.703125 10.796875 
Q 20.90625 11.625 23.390625 21.484375 
L 31.640625 51.859375 
L 40.671875 51.859375 
L 48.4375 21.78125 
L 51.03125 11.859375 
L 54 21.875 
L 62.890625 51.859375 
L 71.4375 51.859375 
L 55.21875 0 
L 46.09375 0 
L 37.84375 31.0625 
L 35.84375 39.890625 
L 25.34375 0 
z
" id="ArialMT-77"/>
     </defs>
     <g style="fill:#262626;" transform="translate(180.930625 392.8059375)scale(0.22 -0.22)">
      <use xlink:href="#ArialMT-54"/>
      <use x="61.083984375" xlink:href="#ArialMT-28"/>
      <use x="94.384765625" xlink:href="#ArialMT-54"/>
      <use x="155.46875" xlink:href="#ArialMT-68"/>
      <use x="211.083984375" xlink:href="#ArialMT-69"/>
      <use x="233.30078125" xlink:href="#ArialMT-73"/>
      <use x="283.30078125" xlink:href="#ArialMT-20"/>
      <use x="311.083984375" xlink:href="#ArialMT-77"/>
      <use x="383.30078125" xlink:href="#ArialMT-6f"/>
      <use x="438.916015625" xlink:href="#ArialMT-72"/>
      <use x="472.216796875" xlink:href="#ArialMT-6b"/>
      <use x="522.216796875" xlink:href="#ArialMT-29"/>
      <use x="555.517578125" xlink:href="#ArialMT-20"/>
      <use x="583.30078125" xlink:href="#ArialMT-2d"/>
      <use x="616.6015625" xlink:href="#ArialMT-20"/>
      <use x="644.369140625" xlink:href="#ArialMT-54"/>
      <use x="705.453125" xlink:href="#ArialMT-28"/>
      <use x="738.75390625" xlink:href="#ArialMT-53"/>
      <use x="805.453125" xlink:href="#ArialMT-53"/>
      <use x="872.15234375" xlink:href="#ArialMT-50"/>
      <use x="938.8515625" xlink:href="#ArialMT-50"/>
      <use x="1005.55078125" xlink:href="#ArialMT-29"/>
     </g>
    </g>
   </g>
   <g id="matplotlib.axis_2">
    <g id="ytick_1">
     <g id="line2d_19">
      <path clip-path="url(#pa3304034b9)" d="M 72 346.5 
L 518.4 346.5 
" style="fill:none;stroke:#ffffff;stroke-linecap:round;"/>
     </g>
     <g id="line2d_20">
      <g>
       <use style="fill:#262626;stroke:#262626;" x="72.0" xlink:href="#m5f91c64932" y="346.5"/>
      </g>
     </g>
     <g id="line2d_21">
      <g>
       <use style="fill:#262626;stroke:#262626;" x="518.4" xlink:href="#m5f91c64932" y="346.5"/>
      </g>
     </g>
     <g id="text_8">
      <!-- 0.0000 -->
      <defs>
       <path d="M 9.078125 0 
L 9.078125 10.015625 
L 19.09375 10.015625 
L 19.09375 0 
z
" id="ArialMT-2e"/>
      </defs>
      <g style="fill:#262626;" transform="translate(3.834375 351.6703125)scale(0.2 -0.2)">
       <use xlink:href="#ArialMT-30"/>
       <use x="55.615234375" xlink:href="#ArialMT-2e"/>
       <use x="83.3984375" xlink:href="#ArialMT-30"/>
       <use x="139.013671875" xlink:href="#ArialMT-30"/>
       <use x="194.62890625" xlink:href="#ArialMT-30"/>
       <use x="250.244140625" xlink:href="#ArialMT-30"/>
      </g>
     </g>
    </g>
    <g id="ytick_2">
     <g id="line2d_22">
      <path clip-path="url(#pa3304034b9)" d="M 72 285.12 
L 518.4 285.12 
" style="fill:none;stroke:#ffffff;stroke-linecap:round;"/>
     </g>
     <g id="line2d_23">
      <g>
       <use style="fill:#262626;stroke:#262626;" x="72.0" xlink:href="#m5f91c64932" y="285.12"/>
      </g>
     </g>
     <g id="line2d_24">
      <g>
       <use style="fill:#262626;stroke:#262626;" x="518.4" xlink:href="#m5f91c64932" y="285.12"/>
      </g>
     </g>
     <g id="text_9">
      <!-- 0.0005 -->
      <g style="fill:#262626;" transform="translate(3.834375 290.2903125)scale(0.2 -0.2)">
       <use xlink:href="#ArialMT-30"/>
       <use x="55.615234375" xlink:href="#ArialMT-2e"/>
       <use x="83.3984375" xlink:href="#ArialMT-30"/>
       <use x="139.013671875" xlink:href="#ArialMT-30"/>
       <use x="194.62890625" xlink:href="#ArialMT-30"/>
       <use x="250.244140625" xlink:href="#ArialMT-35"/>
      </g>
     </g>
    </g>
    <g id="ytick_3">
     <g id="line2d_25">
      <path clip-path="url(#pa3304034b9)" d="M 72 223.74 
L 518.4 223.74 
" style="fill:none;stroke:#ffffff;stroke-linecap:round;"/>
     </g>
     <g id="line2d_26">
      <g>
       <use style="fill:#262626;stroke:#262626;" x="72.0" xlink:href="#m5f91c64932" y="223.74"/>
      </g>
     </g>
     <g id="line2d_27">
      <g>
       <use style="fill:#262626;stroke:#262626;" x="518.4" xlink:href="#m5f91c64932" y="223.74"/>
      </g>
     </g>
     <g id="text_10">
      <!-- 0.0010 -->
      <g style="fill:#262626;" transform="translate(3.834375 228.9103125)scale(0.2 -0.2)">
       <use xlink:href="#ArialMT-30"/>
       <use x="55.615234375" xlink:href="#ArialMT-2e"/>
       <use x="83.3984375" xlink:href="#ArialMT-30"/>
       <use x="139.013671875" xlink:href="#ArialMT-30"/>
       <use x="194.62890625" xlink:href="#ArialMT-31"/>
       <use x="250.244140625" xlink:href="#ArialMT-30"/>
      </g>
     </g>
    </g>
    <g id="ytick_4">
     <g id="line2d_28">
      <path clip-path="url(#pa3304034b9)" d="M 72 162.36 
L 518.4 162.36 
" style="fill:none;stroke:#ffffff;stroke-linecap:round;"/>
     </g>
     <g id="line2d_29">
      <g>
       <use style="fill:#262626;stroke:#262626;" x="72.0" xlink:href="#m5f91c64932" y="162.36"/>
      </g>
     </g>
     <g id="line2d_30">
      <g>
       <use style="fill:#262626;stroke:#262626;" x="518.4" xlink:href="#m5f91c64932" y="162.36"/>
      </g>
     </g>
     <g id="text_11">
      <!-- 0.0015 -->
      <g style="fill:#262626;" transform="translate(3.834375 167.5303125)scale(0.2 -0.2)">
       <use xlink:href="#ArialMT-30"/>
       <use x="55.615234375" xlink:href="#ArialMT-2e"/>
       <use x="83.3984375" xlink:href="#ArialMT-30"/>
       <use x="139.013671875" xlink:href="#ArialMT-30"/>
       <use x="194.62890625" xlink:href="#ArialMT-31"/>
       <use x="250.244140625" xlink:href="#ArialMT-35"/>
      </g>
     </g>
    </g>
    <g id="ytick_5">
     <g id="line2d_31">
      <path clip-path="url(#pa3304034b9)" d="M 72 100.98 
L 518.4 100.98 
" style="fill:none;stroke:#ffffff;stroke-linecap:round;"/>
     </g>
     <g id="line2d_32">
      <g>
       <use style="fill:#262626;stroke:#262626;" x="72.0" xlink:href="#m5f91c64932" y="100.98"/>
      </g>
     </g>
     <g id="line2d_33">
      <g>
       <use style="fill:#262626;stroke:#262626;" x="518.4" xlink:href="#m5f91c64932" y="100.98"/>
      </g>
     </g>
     <g id="text_12">
      <!-- 0.0020 -->
      <defs>
       <path d="M 50.34375 8.453125 
L 50.34375 0 
L 3.03125 0 
Q 2.9375 3.171875 4.046875 6.109375 
Q 5.859375 10.9375 9.828125 15.625 
Q 13.8125 20.3125 21.34375 26.46875 
Q 33.015625 36.03125 37.109375 41.625 
Q 41.21875 47.21875 41.21875 52.203125 
Q 41.21875 57.421875 37.46875 61 
Q 33.734375 64.59375 27.734375 64.59375 
Q 21.390625 64.59375 17.578125 60.78125 
Q 13.765625 56.984375 13.71875 50.25 
L 4.6875 51.171875 
Q 5.609375 61.28125 11.65625 66.578125 
Q 17.71875 71.875 27.9375 71.875 
Q 38.234375 71.875 44.234375 66.15625 
Q 50.25 60.453125 50.25 52 
Q 50.25 47.703125 48.484375 43.546875 
Q 46.734375 39.40625 42.65625 34.8125 
Q 38.578125 30.21875 29.109375 22.21875 
Q 21.1875 15.578125 18.9375 13.203125 
Q 16.703125 10.84375 15.234375 8.453125 
z
" id="ArialMT-32"/>
      </defs>
      <g style="fill:#262626;" transform="translate(3.834375 106.1503125)scale(0.2 -0.2)">
       <use xlink:href="#ArialMT-30"/>
       <use x="55.615234375" xlink:href="#ArialMT-2e"/>
       <use x="83.3984375" xlink:href="#ArialMT-30"/>
       <use x="139.013671875" xlink:href="#ArialMT-30"/>
       <use x="194.62890625" xlink:href="#ArialMT-32"/>
       <use x="250.244140625" xlink:href="#ArialMT-30"/>
      </g>
     </g>
    </g>
    <g id="ytick_6">
     <g id="line2d_34">
      <path clip-path="url(#pa3304034b9)" d="M 72 39.6 
L 518.4 39.6 
" style="fill:none;stroke:#ffffff;stroke-linecap:round;"/>
     </g>
     <g id="line2d_35">
      <g>
       <use style="fill:#262626;stroke:#262626;" x="72.0" xlink:href="#m5f91c64932" y="39.6"/>
      </g>
     </g>
     <g id="line2d_36">
      <g>
       <use style="fill:#262626;stroke:#262626;" x="518.4" xlink:href="#m5f91c64932" y="39.6"/>
      </g>
     </g>
     <g id="text_13">
      <!-- 0.0025 -->
      <g style="fill:#262626;" transform="translate(3.834375 44.7703125)scale(0.2 -0.2)">
       <use xlink:href="#ArialMT-30"/>
       <use x="55.615234375" xlink:href="#ArialMT-2e"/>
       <use x="83.3984375" xlink:href="#ArialMT-30"/>
       <use x="139.013671875" xlink:href="#ArialMT-30"/>
       <use x="194.62890625" xlink:href="#ArialMT-32"/>
       <use x="250.244140625" xlink:href="#ArialMT-35"/>
      </g>
     </g>
    </g>
   </g>
   <g id="patch_3">
    <path clip-path="url(#pa3304034b9)" d="M 120.958913 346.5 
L 128.598507 346.5 
L 128.598507 343.864019 
L 120.958913 343.864019 
z
" style="fill:#ff0000;opacity:0.4;stroke:#000000;stroke-linejoin:miter;stroke-width:0.3;"/>
   </g>
   <g id="patch_4">
    <path clip-path="url(#pa3304034b9)" d="M 128.598507 346.5 
L 136.238102 346.5 
L 136.238102 345.182009 
L 128.598507 345.182009 
z
" style="fill:#ff0000;opacity:0.4;stroke:#000000;stroke-linejoin:miter;stroke-width:0.3;"/>
   </g>
   <g id="patch_5">
    <path clip-path="url(#pa3304034b9)" d="M 136.238102 346.5 
L 143.877696 346.5 
L 143.877696 346.5 
L 136.238102 346.5 
z
" style="fill:#ff0000;opacity:0.4;stroke:#000000;stroke-linejoin:miter;stroke-width:0.3;"/>
   </g>
   <g id="patch_6">
    <path clip-path="url(#pa3304034b9)" d="M 143.877696 346.5 
L 151.51729 346.5 
L 151.51729 345.182009 
L 143.877696 345.182009 
z
" style="fill:#ff0000;opacity:0.4;stroke:#000000;stroke-linejoin:miter;stroke-width:0.3;"/>
   </g>
   <g id="patch_7">
    <path clip-path="url(#pa3304034b9)" d="M 151.51729 346.5 
L 159.156884 346.5 
L 159.156884 345.182009 
L 151.51729 345.182009 
z
" style="fill:#ff0000;opacity:0.4;stroke:#000000;stroke-linejoin:miter;stroke-width:0.3;"/>
   </g>
   <g id="patch_8">
    <path clip-path="url(#pa3304034b9)" d="M 159.156884 346.5 
L 166.796479 346.5 
L 166.796479 345.182009 
L 159.156884 345.182009 
z
" style="fill:#ff0000;opacity:0.4;stroke:#000000;stroke-linejoin:miter;stroke-width:0.3;"/>
   </g>
   <g id="patch_9">
    <path clip-path="url(#pa3304034b9)" d="M 166.796479 346.5 
L 174.436073 346.5 
L 174.436073 345.182009 
L 166.796479 345.182009 
z
" style="fill:#ff0000;opacity:0.4;stroke:#000000;stroke-linejoin:miter;stroke-width:0.3;"/>
   </g>
   <g id="patch_10">
    <path clip-path="url(#pa3304034b9)" d="M 174.436073 346.5 
L 182.075667 346.5 
L 182.075667 339.910047 
L 174.436073 339.910047 
z
" style="fill:#ff0000;opacity:0.4;stroke:#000000;stroke-linejoin:miter;stroke-width:0.3;"/>
   </g>
   <g id="patch_11">
    <path clip-path="url(#pa3304034b9)" d="M 182.075667 346.5 
L 189.715261 346.5 
L 189.715261 343.864019 
L 182.075667 343.864019 
z
" style="fill:#ff0000;opacity:0.4;stroke:#000000;stroke-linejoin:miter;stroke-width:0.3;"/>
   </g>
   <g id="patch_12">
    <path clip-path="url(#pa3304034b9)" d="M 189.715261 346.5 
L 197.354856 346.5 
L 197.354856 337.274065 
L 189.715261 337.274065 
z
" style="fill:#ff0000;opacity:0.4;stroke:#000000;stroke-linejoin:miter;stroke-width:0.3;"/>
   </g>
   <g id="patch_13">
    <path clip-path="url(#pa3304034b9)" d="M 197.354856 346.5 
L 204.99445 346.5 
L 204.99445 338.592056 
L 197.354856 338.592056 
z
" style="fill:#ff0000;opacity:0.4;stroke:#000000;stroke-linejoin:miter;stroke-width:0.3;"/>
   </g>
   <g id="patch_14">
    <path clip-path="url(#pa3304034b9)" d="M 204.99445 346.5 
L 212.634044 346.5 
L 212.634044 312.232243 
L 204.99445 312.232243 
z
" style="fill:#ff0000;opacity:0.4;stroke:#000000;stroke-linejoin:miter;stroke-width:0.3;"/>
   </g>
   <g id="patch_15">
    <path clip-path="url(#pa3304034b9)" d="M 212.634044 346.5 
L 220.273639 346.5 
L 220.273639 258.194626 
L 212.634044 258.194626 
z
" style="fill:#ff0000;opacity:0.4;stroke:#000000;stroke-linejoin:miter;stroke-width:0.3;"/>
   </g>
   <g id="patch_16">
    <path clip-path="url(#pa3304034b9)" d="M 220.273639 346.5 
L 227.913233 346.5 
L 227.913233 154.073363 
L 220.273639 154.073363 
z
" style="fill:#ff0000;opacity:0.4;stroke:#000000;stroke-linejoin:miter;stroke-width:0.3;"/>
   </g>
   <g id="patch_17">
    <path clip-path="url(#pa3304034b9)" d="M 227.913233 346.5 
L 235.552827 346.5 
L 235.552827 81.583877 
L 227.913233 81.583877 
z
" style="fill:#ff0000;opacity:0.4;stroke:#000000;stroke-linejoin:miter;stroke-width:0.3;"/>
   </g>
   <g id="patch_18">
    <path clip-path="url(#pa3304034b9)" d="M 235.552827 346.5 
L 243.192421 346.5 
L 243.192421 78.947896 
L 235.552827 78.947896 
z
" style="fill:#ff0000;opacity:0.4;stroke:#000000;stroke-linejoin:miter;stroke-width:0.3;"/>
   </g>
   <g id="patch_19">
    <path clip-path="url(#pa3304034b9)" d="M 243.192421 346.5 
L 250.832016 346.5 
L 250.832016 48.63411 
L 243.192421 48.63411 
z
" style="fill:#ff0000;opacity:0.4;stroke:#000000;stroke-linejoin:miter;stroke-width:0.3;"/>
   </g>
   <g id="patch_20">
    <path clip-path="url(#pa3304034b9)" d="M 250.832016 346.5 
L 258.47161 346.5 
L 258.47161 85.537849 
L 250.832016 85.537849 
z
" style="fill:#ff0000;opacity:0.4;stroke:#000000;stroke-linejoin:miter;stroke-width:0.3;"/>
   </g>
   <g id="patch_21">
    <path clip-path="url(#pa3304034b9)" d="M 258.47161 346.5 
L 266.111204 346.5 
L 266.111204 130.349531 
L 258.47161 130.349531 
z
" style="fill:#ff0000;opacity:0.4;stroke:#000000;stroke-linejoin:miter;stroke-width:0.3;"/>
   </g>
   <g id="patch_22">
    <path clip-path="url(#pa3304034b9)" d="M 266.111204 346.5 
L 273.750799 346.5 
L 273.750799 147.48341 
L 266.111204 147.48341 
z
" style="fill:#ff0000;opacity:0.4;stroke:#000000;stroke-linejoin:miter;stroke-width:0.3;"/>
   </g>
   <g id="patch_23">
    <path clip-path="url(#pa3304034b9)" d="M 273.750799 346.5 
L 281.390393 346.5 
L 281.390393 194.931074 
L 273.750799 194.931074 
z
" style="fill:#ff0000;opacity:0.4;stroke:#000000;stroke-linejoin:miter;stroke-width:0.3;"/>
   </g>
   <g id="patch_24">
    <path clip-path="url(#pa3304034b9)" d="M 281.390393 346.5 
L 289.029987 346.5 
L 289.029987 181.751167 
L 281.390393 181.751167 
z
" style="fill:#ff0000;opacity:0.4;stroke:#000000;stroke-linejoin:miter;stroke-width:0.3;"/>
   </g>
   <g id="patch_25">
    <path clip-path="url(#pa3304034b9)" d="M 289.029987 346.5 
L 296.669581 346.5 
L 296.669581 225.244859 
L 289.029987 225.244859 
z
" style="fill:#ff0000;opacity:0.4;stroke:#000000;stroke-linejoin:miter;stroke-width:0.3;"/>
   </g>
   <g id="patch_26">
    <path clip-path="url(#pa3304034b9)" d="M 296.669581 346.5 
L 304.309176 346.5 
L 304.309176 262.148598 
L 296.669581 262.148598 
z
" style="fill:#ff0000;opacity:0.4;stroke:#000000;stroke-linejoin:miter;stroke-width:0.3;"/>
   </g>
   <g id="patch_27">
    <path clip-path="url(#pa3304034b9)" d="M 304.309176 346.5 
L 311.94877 346.5 
L 311.94877 268.738551 
L 304.309176 268.738551 
z
" style="fill:#ff0000;opacity:0.4;stroke:#000000;stroke-linejoin:miter;stroke-width:0.3;"/>
   </g>
   <g id="patch_28">
    <path clip-path="url(#pa3304034b9)" d="M 311.94877 346.5 
L 319.588364 346.5 
L 319.588364 275.328504 
L 311.94877 275.328504 
z
" style="fill:#ff0000;opacity:0.4;stroke:#000000;stroke-linejoin:miter;stroke-width:0.3;"/>
   </g>
   <g id="patch_29">
    <path clip-path="url(#pa3304034b9)" d="M 319.588364 346.5 
L 327.227958 346.5 
L 327.227958 280.600467 
L 319.588364 280.600467 
z
" style="fill:#ff0000;opacity:0.4;stroke:#000000;stroke-linejoin:miter;stroke-width:0.3;"/>
   </g>
   <g id="patch_30">
    <path clip-path="url(#pa3304034b9)" d="M 327.227958 346.5 
L 334.867553 346.5 
L 334.867553 285.87243 
L 327.227958 285.87243 
z
" style="fill:#ff0000;opacity:0.4;stroke:#000000;stroke-linejoin:miter;stroke-width:0.3;"/>
   </g>
   <g id="patch_31">
    <path clip-path="url(#pa3304034b9)" d="M 334.867553 346.5 
L 342.507147 346.5 
L 342.507147 314.868224 
L 334.867553 314.868224 
z
" style="fill:#ff0000;opacity:0.4;stroke:#000000;stroke-linejoin:miter;stroke-width:0.3;"/>
   </g>
   <g id="patch_32">
    <path clip-path="url(#pa3304034b9)" d="M 342.507147 346.5 
L 350.146741 346.5 
L 350.146741 314.868224 
L 342.507147 314.868224 
z
" style="fill:#ff0000;opacity:0.4;stroke:#000000;stroke-linejoin:miter;stroke-width:0.3;"/>
   </g>
   <g id="patch_33">
    <path clip-path="url(#pa3304034b9)" d="M 350.146741 346.5 
L 357.786336 346.5 
L 357.786336 317.504205 
L 350.146741 317.504205 
z
" style="fill:#ff0000;opacity:0.4;stroke:#000000;stroke-linejoin:miter;stroke-width:0.3;"/>
   </g>
   <g id="patch_34">
    <path clip-path="url(#pa3304034b9)" d="M 357.786336 346.5 
L 365.42593 346.5 
L 365.42593 318.822196 
L 357.786336 318.822196 
z
" style="fill:#ff0000;opacity:0.4;stroke:#000000;stroke-linejoin:miter;stroke-width:0.3;"/>
   </g>
   <g id="patch_35">
    <path clip-path="url(#pa3304034b9)" d="M 365.42593 346.5 
L 373.065524 346.5 
L 373.065524 329.366121 
L 365.42593 329.366121 
z
" style="fill:#ff0000;opacity:0.4;stroke:#000000;stroke-linejoin:miter;stroke-width:0.3;"/>
   </g>
   <g id="patch_36">
    <path clip-path="url(#pa3304034b9)" d="M 373.065524 346.5 
L 380.705118 346.5 
L 380.705118 326.73014 
L 373.065524 326.73014 
z
" style="fill:#ff0000;opacity:0.4;stroke:#000000;stroke-linejoin:miter;stroke-width:0.3;"/>
   </g>
   <g id="patch_37">
    <path clip-path="url(#pa3304034b9)" d="M 380.705118 346.5 
L 388.344713 346.5 
L 388.344713 337.274065 
L 380.705118 337.274065 
z
" style="fill:#ff0000;opacity:0.4;stroke:#000000;stroke-linejoin:miter;stroke-width:0.3;"/>
   </g>
   <g id="patch_38">
    <path clip-path="url(#pa3304034b9)" d="M 388.344713 346.5 
L 395.984307 346.5 
L 395.984307 335.956075 
L 388.344713 335.956075 
z
" style="fill:#ff0000;opacity:0.4;stroke:#000000;stroke-linejoin:miter;stroke-width:0.3;"/>
   </g>
   <g id="patch_39">
    <path clip-path="url(#pa3304034b9)" d="M 395.984307 346.5 
L 403.623901 346.5 
L 403.623901 335.956075 
L 395.984307 335.956075 
z
" style="fill:#ff0000;opacity:0.4;stroke:#000000;stroke-linejoin:miter;stroke-width:0.3;"/>
   </g>
   <g id="patch_40">
    <path clip-path="url(#pa3304034b9)" d="M 403.623901 346.5 
L 411.263495 346.5 
L 411.263495 339.910047 
L 403.623901 339.910047 
z
" style="fill:#ff0000;opacity:0.4;stroke:#000000;stroke-linejoin:miter;stroke-width:0.3;"/>
   </g>
   <g id="patch_41">
    <path clip-path="url(#pa3304034b9)" d="M 411.263495 346.5 
L 418.90309 346.5 
L 418.90309 339.910047 
L 411.263495 339.910047 
z
" style="fill:#ff0000;opacity:0.4;stroke:#000000;stroke-linejoin:miter;stroke-width:0.3;"/>
   </g>
   <g id="patch_42">
    <path clip-path="url(#pa3304034b9)" d="M 418.90309 346.5 
L 426.542684 346.5 
L 426.542684 341.228037 
L 418.90309 341.228037 
z
" style="fill:#ff0000;opacity:0.4;stroke:#000000;stroke-linejoin:miter;stroke-width:0.3;"/>
   </g>
   <g id="patch_43">
    <path clip-path="url(#pa3304034b9)" d="M 426.542684 346.5 
L 434.182278 346.5 
L 434.182278 342.546028 
L 426.542684 342.546028 
z
" style="fill:#ff0000;opacity:0.4;stroke:#000000;stroke-linejoin:miter;stroke-width:0.3;"/>
   </g>
   <g id="patch_44">
    <path clip-path="url(#pa3304034b9)" d="M 434.182278 346.5 
L 441.821873 346.5 
L 441.821873 343.864019 
L 434.182278 343.864019 
z
" style="fill:#ff0000;opacity:0.4;stroke:#000000;stroke-linejoin:miter;stroke-width:0.3;"/>
   </g>
   <g id="patch_45">
    <path clip-path="url(#pa3304034b9)" d="M 441.821873 346.5 
L 449.461467 346.5 
L 449.461467 346.5 
L 441.821873 346.5 
z
" style="fill:#ff0000;opacity:0.4;stroke:#000000;stroke-linejoin:miter;stroke-width:0.3;"/>
   </g>
   <g id="patch_46">
    <path clip-path="url(#pa3304034b9)" d="M 449.461467 346.5 
L 457.101061 346.5 
L 457.101061 346.5 
L 449.461467 346.5 
z
" style="fill:#ff0000;opacity:0.4;stroke:#000000;stroke-linejoin:miter;stroke-width:0.3;"/>
   </g>
   <g id="patch_47">
    <path clip-path="url(#pa3304034b9)" d="M 457.101061 346.5 
L 464.740655 346.5 
L 464.740655 343.864019 
L 457.101061 343.864019 
z
" style="fill:#ff0000;opacity:0.4;stroke:#000000;stroke-linejoin:miter;stroke-width:0.3;"/>
   </g>
   <g id="line2d_37">
    <path clip-path="url(#pa3304034b9)" d="M 120.843745 345.396282 
L 124.318614 345.247407 
L 127.793483 345.221432 
L 131.268353 345.302649 
L 134.743222 345.432961 
L 138.218092 345.544508 
L 141.692961 345.593121 
L 145.167831 345.569233 
L 148.6427 345.484263 
L 152.11757 345.349582 
L 155.592439 345.16476 
L 159.067309 344.919104 
L 162.542178 344.602012 
L 166.017048 344.215764 
L 169.491917 343.781167 
L 172.966787 343.324626 
L 176.441656 342.84698 
L 179.916526 342.294506 
L 183.391395 341.551486 
L 186.866265 340.439972 
L 190.341134 338.686338 
L 193.816004 335.845538 
L 197.290873 331.241353 
L 200.765743 324.000223 
L 204.240612 313.189663 
L 207.715482 297.994689 
L 211.190351 277.88167 
L 214.665221 252.7932 
L 218.14009 223.432309 
L 221.61496 191.522141 
L 225.089829 159.730961 
L 228.564699 131.055636 
L 232.039568 107.897712 
L 235.514438 91.406079 
L 238.989307 81.473371 
L 242.464177 77.239829 
L 245.939046 77.663092 
L 249.413916 81.871718 
L 252.888785 89.276358 
L 256.363655 99.467373 
L 259.838524 111.944818 
L 263.313394 125.879346 
L 266.788263 140.164441 
L 270.263133 153.77587 
L 273.738002 166.15288 
L 277.212872 177.317504 
L 280.687741 187.700426 
L 284.16261 197.838888 
L 287.63748 208.124341 
L 291.112349 218.679473 
L 294.587219 229.340925 
L 298.062088 239.700311 
L 301.536958 249.214751 
L 305.011827 257.412623 
L 308.486697 264.116477 
L 311.961566 269.525873 
L 315.436436 274.100868 
L 318.911305 278.357916 
L 322.386175 282.719789 
L 325.861044 287.445383 
L 329.335914 292.584585 
L 332.810783 297.945305 
L 336.285653 303.129458 
L 339.760522 307.680094 
L 343.235392 311.28993 
L 346.710261 313.948143 
L 350.185131 315.926217 
L 353.66 317.614002 
L 357.13487 319.320965 
L 360.609739 321.16706 
L 364.084609 323.10565 
L 367.559478 325.027438 
L 371.034348 326.857864 
L 374.509217 328.588491 
L 377.984087 330.241242 
L 381.458956 331.81179 
L 384.933826 333.246227 
L 388.408695 334.471238 
L 391.883565 335.450781 
L 395.358434 336.220492 
L 398.833304 336.871173 
L 402.308173 337.495518 
L 405.783043 338.141209 
L 409.257912 338.805044 
L 412.732782 339.465423 
L 416.207651 340.118746 
L 419.682521 340.787445 
L 423.15739 341.497013 
L 426.63226 342.246145 
L 430.107129 342.997205 
L 433.581999 343.695273 
L 437.056868 344.298388 
L 440.531737 344.79125 
L 444.006607 345.172822 
L 447.481476 345.43819 
L 450.956346 345.581023 
L 454.431215 345.616057 
L 457.906085 345.593952 
L 461.380954 345.586156 
L 464.855824 345.647983 
" style="fill:none;stroke:#ff0000;stroke-linecap:round;stroke-width:1.75;"/>
   </g>
   <g id="patch_48">
    <path d="M 72 346.5 
L 518.4 346.5 
" style="fill:none;"/>
   </g>
   <g id="patch_49">
    <path d="M 72 39.6 
L 518.4 39.6 
" style="fill:none;"/>
   </g>
   <g id="patch_50">
    <path d="M 72 346.5 
L 72 39.6 
" style="fill:none;"/>
   </g>
   <g id="patch_51">
    <path d="M 518.4 346.5 
L 518.4 39.6 
" style="fill:none;"/>
   </g>
  </g>
 </g>
 <defs>
  <clipPath id="pa3304034b9">
   <rect height="306.9" width="446.4" x="72.0" y="39.6"/>
  </clipPath>
 </defs>
</svg>
